<?xml version="1.0" encoding="UTF-8" standalone="no"?>
<!-- Created with Inkscape (http://www.inkscape.org/) -->

<svg
   xmlns:dc="http://purl.org/dc/elements/1.1/"
   xmlns:cc="http://creativecommons.org/ns#"
   xmlns:rdf="http://www.w3.org/1999/02/22-rdf-syntax-ns#"
   xmlns:svg="http://www.w3.org/2000/svg"
   xmlns="http://www.w3.org/2000/svg"
   xmlns:sodipodi="http://sodipodi.sourceforge.net/DTD/sodipodi-0.dtd"
   xmlns:inkscape="http://www.inkscape.org/namespaces/inkscape"
   id="svg2985"
   version="1.1"
   inkscape:version="0.48.5 r10040"
   width="1707.5"
   height="960"
   xml:space="preserve"
   sodipodi:docname="SHK.ai"><metadata
     id="metadata2991"><rdf:RDF><cc:Work
         rdf:about=""><dc:format>image/svg+xml</dc:format><dc:type
           rdf:resource="http://purl.org/dc/dcmitype/StillImage" /><dc:title></dc:title></cc:Work></rdf:RDF></metadata><defs
     id="defs2989"><clipPath
       clipPathUnits="userSpaceOnUse"
       id="clipPath2999"><path
         d="M 0,768 1366,768 1366,0 0,0 0,768 z"
         id="path3001" /></clipPath><clipPath
       clipPathUnits="userSpaceOnUse"
       id="clipPath3027"><path
         d="M 0,768 1366,768 1366,0 0,0 0,768 z"
         id="path3029" /></clipPath><clipPath
       clipPathUnits="userSpaceOnUse"
       id="clipPath3047"><path
         d="M 0,768 1366,768 1366,0 0,0 0,768 z"
         id="path3049" /></clipPath><clipPath
       clipPathUnits="userSpaceOnUse"
       id="clipPath3067"><path
         d="M 0,768 1366,768 1366,0 0,0 0,768 z"
         id="path3069" /></clipPath></defs><sodipodi:namedview
     pagecolor="#ffffff"
     bordercolor="#666666"
     borderopacity="1"
     objecttolerance="10"
     gridtolerance="10"
     guidetolerance="10"
     inkscape:pageopacity="0"
     inkscape:pageshadow="2"
     inkscape:window-width="1292"
     inkscape:window-height="746"
     id="namedview2987"
     showgrid="false"
     inkscape:zoom="0.50191123"
     inkscape:cx="1043.7662"
     inkscape:cy="700.46902"
     inkscape:window-x="66"
     inkscape:window-y="-8"
     inkscape:window-maximized="1"
     inkscape:current-layer="g3063" /><g
     id="g2993"
     inkscape:groupmode="layer"
     inkscape:label="SHK"
     transform="matrix(1.25,0,0,-1.25,0,960)"><g
       id="g2995"><g
         id="g2997"
         clip-path="url(#clipPath2999)"><g
           id="g3003"
           transform="translate(147.1406,273.04)"><path
             d="m 0,0 c 0,0 -62.105,18.305 -62.949,57.864 0,0 -66.561,11.411 -66.561,-47.168 0,-25.866 35.436,-38.038 59.061,-45.646 26.207,-8.44 87.746,-17.499 70.459,-63.905 -6.669,-17.901 -39.087,-31.954 -64.554,-41.083 -35.972,-12.895 -64.874,-20.722 -64.966,-52.494 -0.042,-14.454 22.511,-43.156 64.709,-41.081 61.849,3.043 71.292,34.55 67.989,47.168 -4.172,15.938 -35.154,21.726 -66.649,10.651 0,0 60.53,2.169 49.562,-21.415 -10.968,-23.584 -86.081,-28.795 -88.613,4.677 -2.413,31.915 38.811,31.194 82.685,47.93 48.201,18.389 104.931,69.447 69.765,103.41 C -2.108,9.174 -91.543,-28.104 -94.074,5.37"
             style="fill:#3cb879;fill-opacity:1;fill-rule:nonzero;stroke:none"
             id="path3005" /></g><g
           id="g3007"
           transform="translate(141.6572,251.0225)"><path
             d="m 0,0 c 0,0 31.217,-6.086 42.186,-18.258 10.968,-12.173 -5.984,0.932 -17.507,7.103 C 10.544,-3.586 0,0 0,0"
             style="fill:#ffffff;fill-opacity:1;fill-rule:nonzero;stroke:none"
             id="path3009" /></g><g
           id="g3011"
           transform="translate(70.2822,724.4883)"><path
             d="m 0,0 c 0,0 -25.249,7.441 -25.592,23.524 0,0 -27.059,4.64 -27.059,-19.175 0,-10.516 14.406,-15.464 24.01,-18.557 10.655,-3.431 35.672,-7.114 28.644,-25.98 -2.711,-7.277 -15.89,-12.99 -26.243,-16.701 -14.623,-5.242 -26.373,-8.424 -26.411,-21.34 -0.017,-5.877 9.152,-17.545 26.307,-16.702 25.143,1.237 28.983,14.046 27.64,19.176 -1.696,6.479 -14.291,8.832 -27.096,4.33 0,0 24.608,0.882 20.149,-8.706 -4.459,-9.588 -34.995,-11.707 -36.024,1.902 -0.981,12.974 15.778,12.68 33.614,19.484 19.595,7.475 42.658,28.233 28.362,42.04 -21.158,20.435 -57.517,5.28 -58.546,18.889"
             style="fill:#3cb879;fill-opacity:1;fill-rule:nonzero;stroke:none"
             id="path3013" /></g><g
           id="g3015"
           transform="translate(68.0527,715.5381)"><path
             d="m 0,0 c 0,0 12.69,-2.474 17.149,-7.423 4.459,-4.949 -2.432,0.379 -7.117,2.887 C 4.286,-1.458 0,0 0,0"
             style="fill:#ffffff;fill-opacity:1;fill-rule:nonzero;stroke:none"
             id="path3017" /></g></g></g><text
       transform="matrix(1,0,0,-1,77.3477,638.7148)"
       id="text3019"><tspan
         style="fill:#3cb879;fill-opacity:1;fill-rule:nonzero;stroke:none;font-family:Nostalgia BRK;font-variant:normal;font-weight:normal;font-stretch:normal;font-size:48;writing-mode:lr;-inkscape-font-specification:NostalgiaBRK"
         x="0 25.872 51.792 79.776 109.872 135.744 162.432 188.304 214.224 238.224 268.32 281.712 311.808"
         y="0"
         sodipodi:role="line"
         id="tspan3021">Seahorse King</tspan></text>
<g
       id="g3023"><g
         id="g3025"
         clip-path="url(#clipPath3027)"><g
           id="g3031"
           transform="translate(70.2822,445.3403)"><path
             d="m 0,0 c 0,0 -25.249,7.441 -25.592,23.524 0,0 -27.059,4.64 -27.059,-19.175 0,-10.516 14.406,-15.464 24.01,-18.557 10.655,-3.431 35.672,-7.114 28.644,-25.98 -2.711,-7.277 -15.89,-12.99 -26.243,-16.701 -14.623,-5.242 -26.373,-8.424 -26.411,-21.34 -0.017,-5.877 9.152,-17.545 26.307,-16.701 25.143,1.236 28.983,14.045 27.64,19.175 -1.696,6.479 -14.291,8.833 -27.096,4.33 0,0 24.608,0.882 20.149,-8.706 -4.459,-9.588 -34.995,-11.707 -36.024,1.902 -0.981,12.974 15.778,12.68 33.614,19.484 19.595,7.475 42.658,28.233 28.362,42.04 -21.158,20.435 -57.517,5.28 -58.546,18.889"
             style="fill:#3cb879;fill-opacity:1;fill-rule:nonzero;stroke:none"
             id="path3033" /></g><g
           id="g3035"
           transform="translate(68.0527,436.3901)"><path
             d="m 0,0 c 0,0 12.69,-2.474 17.149,-7.423 4.459,-4.949 -2.432,0.379 -7.117,2.887 C 4.286,-1.458 0,0 0,0"
             style="fill:#ffffff;fill-opacity:1;fill-rule:nonzero;stroke:none"
             id="path3037" /></g></g></g><text
       transform="matrix(1,0,0,-1,77.3477,359.9512)"
       id="text3039"><tspan
         style="fill:#3cb879;fill-opacity:1;fill-rule:nonzero;stroke:none;font-family:Brush Script Std;font-style:italic;font-variant:normal;font-weight:500;font-stretch:normal;font-size:48;writing-mode:lr;-inkscape-font-specification:BrushScriptStd"
         x="0 34.176 51.312 74.688 95.904 114.912 131.616 148.848 165.984 182.304 222.624 235.968 258.048"
         y="0"
         sodipodi:role="line"
         id="tspan3041">Seahorse King</tspan></text>
<g
       id="g3043"><g
         id="g3045"
         clip-path="url(#clipPath3047)"><g
           id="g3051"
           transform="translate(75.5293,584.6787)"><path
             d="m 0,0 c 0,0 -27.765,8.184 -28.143,25.87 0,0 -29.755,5.102 -29.755,-21.087 0,-11.563 15.841,-17.006 26.403,-20.405 11.716,-3.774 39.228,-7.823 31.499,-28.57 -2.982,-8.003 -17.474,-14.286 -28.859,-18.366 -16.081,-5.764 -29.001,-9.263 -29.043,-23.467 -0.019,-6.462 10.064,-19.293 28.928,-18.366 27.65,1.36 31.872,15.446 30.395,21.086 -1.865,7.126 -15.715,9.714 -29.796,4.762 0,0 27.06,0.97 22.157,-9.573 -4.904,-10.544 -38.482,-12.874 -39.614,2.091 -1.079,14.267 17.349,13.944 36.965,21.427 21.547,8.22 46.908,31.046 31.188,46.229 -23.268,22.472 -63.25,5.807 -64.382,20.771"
             style="fill:#3cb879;fill-opacity:1;fill-rule:nonzero;stroke:none"
             id="path3053" /></g><g
           id="g3055"
           transform="translate(73.0781,574.8384)"><path
             d="m 0,0 c 0,0 13.955,-2.721 18.858,-8.164 4.904,-5.441 -2.675,0.417 -7.827,3.176 C 4.713,-1.604 0,0 0,0"
             style="fill:#ffffff;fill-opacity:1;fill-rule:nonzero;stroke:none"
             id="path3057" /></g></g></g><text
       transform="matrix(1,0,0,-1,83.2998,493.3667)"
       id="text3059"><tspan
         style="fill:#3cb879;fill-opacity:1;fill-rule:nonzero;stroke:none;font-family:Century Gothic;font-variant:normal;font-weight:normal;font-stretch:normal;font-size:39.5879;writing-mode:lr;-inkscape-font-specification:CenturyGothic"
         x="0 19.7147742 45.4469092 72.4854449 96.6340639 122.5641384 134.4800963 149.8402015 175.5723365 186.5381848 209.9346337 217.8522137 242.0008327"
         y="0"
         sodipodi:role="line"
         id="tspan3061">Seahorse King</tspan></text>
<g
       id="g3063"><g
         id="g3065"
         clip-path="url(#clipPath3067)"><g
           id="g3071"
           transform="translate(924.1221,402.8423)"><path
             d="m 0,0 c -28.788,-17.865 0,-99.806 0,-99.806 -69.926,-23.644 -18.56,72.514 -130.339,68.431 0,0 0,-47.956 -0.056,-68.431 C -130.495,-137.436 0,-139.993 0,-174.995 L 0,-243.5 c 0,0 -107.95,17.052 -137.916,0 -13.345,-7.594 -22.464,-37.813 20.646,-57.836 34.206,-15.887 82.488,-17.456 88.482,3.859 8.463,30.088 -54.276,39.396 -54.276,39.396 0,0 70.993,-2.878 83.064,-14.949 l 0,-67.025 -166.127,0 0,134.154 c 0,0 41.462,-5.527 52.714,-0.233 57.789,27.194 -52.714,76.028 -52.714,76.028 l 0,130.106"
             style="fill:#3cb879;fill-opacity:1;fill-rule:nonzero;stroke:none"
             id="path3073" /></g><g
           id="g3075"
           transform="translate(757.9951,420.708)"><path
             d="m 0,0 166.127,0 0,70.456 L 124.437,29.198 83.063,70.456 41.691,29.198 0,70.456 0,0 z"
             style="fill:#3cb879;fill-opacity:1;fill-rule:nonzero;stroke:none"
             id="path3077" /></g><g
           id="g3079"
           transform="translate(1150.8125,397.0225)"><path
             d="m 0,0 c -28.295,-17.56 0,-98.097 0,-98.097 -68.731,-23.239 -45.855,69.108 -98.534,70.032 0,0 -0.466,-12.241 -0.522,-32.367 C -99.154,-97.418 0,-108.263 0,-142.666 l 0,-51.754 c 0,0 0,-58.225 -126.26,-28.651 0,0 -9.289,-29.419 15.359,-48.933 29.063,-23.008 74.139,-24.445 81.951,-12.733 l -6.163,24.442 c 0,0 -12.538,-3.03 -25.142,-2.096 l 9.121,-18.239 c 0,0 -18.872,-0.532 -27.112,4.315 -24.44,14.377 -20.949,35.121 -20.949,35.121 0,0 55.455,-10.475 77.021,3.696 L 0,-334.235 l -163.285,0 0,162.668 c 10.543,0.796 38.488,-9.954 38.488,-9.954 -4.236,53.642 -38.488,76.748 -38.488,76.748 l 0,104.773"
             style="fill:#3cb879;fill-opacity:1;fill-rule:nonzero;stroke:none"
             id="path3081" /></g><g
           id="g3083"
           transform="translate(987.5273,414.5825)"><path
             d="m 0,0 163.285,0 0,49.558 L 124.823,24.779 81.643,49.558 43.493,24.779 0,49.558 0,0 z"
             style="fill:#3cb879;fill-opacity:1;fill-rule:nonzero;stroke:none"
             id="path3085" /></g><path
           d="m 723.512,27.164 -276,0 0,464 276,0 0,-464 z"
           style="fill:#606163;fill-opacity:1;fill-rule:nonzero;stroke:none"
           id="path3087" /><g
           id="g3089"
           transform="translate(653.3447,349.791)"><path
             d="m 0,0 c -41.263,-35.511 -4.592,-91.508 -4.592,-91.508 -19.326,-9.663 -79.321,40.314 -79.321,40.314 C -81.402,-83.58 0,-120.857 0,-120.857 c -18.467,-28.63 0,-66.54 0,-66.54 -50.424,-16.49 -83.385,-2.23 -83.385,-2.23 37.91,-25.273 73.342,-20.813 73.342,-20.813 -30.972,-12.636 -59.119,-76.564 -59.119,-76.564 -9.608,52.6 -69.16,145.435 -69.16,145.435 28.177,-27.19 93.591,-31.704 93.591,-31.704 0,0 -65.414,21.231 -93.591,60.13 0,0 45.274,72.925 0,113.143"
             style="fill:#f2f2f3;fill-opacity:1;fill-rule:nonzero;stroke:none"
             id="path3091" /></g><g
           id="g3093"
           transform="translate(515.0229,364.666)"><path
             d="m 0,0 138.322,0 c -12.767,15.523 -0.001,66.001 -0.001,66.001 L 113.284,24.133 84.977,66.001 52.644,24.133 23.644,63 C 23.644,63 11.312,19.334 0,0"
             style="fill:#ffffff;fill-opacity:1;fill-rule:nonzero;stroke:none"
             id="path3095" /></g><g
           id="g3097"
           transform="translate(567.6665,333.666)"><path
             d="m 0,0 c 0,0 4,-18 23,-23 0,0 -9.488,11.636 -5.155,21.136 L 0,0 z"
             style="fill:#606163;fill-opacity:1;fill-rule:nonzero;stroke:none"
             id="path3099" /></g><g
           id="g3101"
           transform="translate(626.0112,331.8018)"><path
             d="M 0,0 C 0,0 -8.678,-6.469 2.013,-18.302 -3.41,-12.299 0.322,-4.271 7.914,1.864 L 0,0 z"
             style="fill:#606163;fill-opacity:1;fill-rule:nonzero;stroke:none"
             id="path3103" /></g><g
           id="g3105"
           transform="translate(624.8457,681.646)"><path
             d="m 0,0 c -24.26,-20.878 -2.699,-53.801 -2.699,-53.801 -11.364,-5.681 -46.636,23.702 -46.636,23.702 C -47.859,-49.14 0,-71.056 0,-71.056 c -10.857,-16.833 0,-39.121 0,-39.121 -29.646,-9.695 -49.024,-1.311 -49.024,-1.311 22.288,-14.859 43.12,-12.237 43.12,-12.237 -18.21,-7.429 -34.759,-45.014 -34.759,-45.014 -5.649,30.925 -40.661,85.506 -40.661,85.506 16.566,-15.986 55.025,-18.64 55.025,-18.64 0,0 -38.459,12.482 -55.025,35.352 0,0 26.618,42.875 0,66.521"
             style="fill:#373535;fill-opacity:1;fill-rule:nonzero;stroke:none"
             id="path3107" /></g><g
           id="g3109"
           transform="translate(543.5215,690.3916)"><path
             d="m 0,0 81.324,0 c -7.507,9.126 0,38.804 0,38.804 L 60.915,15.97 40.661,38.804 20.409,15.97 0,38.804 C 0,38.804 8.701,8.689 0,0"
             style="fill:#373535;fill-opacity:1;fill-rule:nonzero;stroke:none"
             id="path3111" /></g><path
           inkscape:connector-curvature="0"
           d="m 979.58309,510.76083 -276,0 0,464 276,0 0,-464 z"
           style="fill:#606163;fill-opacity:1;fill-rule:nonzero;stroke:none"
           id="path3087-6" /></g><path
         inkscape:connector-curvature="0"
         d="m 874.27562,699.75155 c -24.26,-20.878 -2.699,-53.801 -2.699,-53.801 -11.364,-5.681 -46.636,23.702 -46.636,23.702 1.476,-19.041 49.335,-40.957 49.335,-40.957 -10.857,-16.833 0,-39.121 0,-39.121 -29.646,-9.695 -49.024,-1.311 -49.024,-1.311 22.288,-14.859 43.12,-12.237 43.12,-12.237 -18.21,-7.429 -34.759,-45.014 -34.759,-45.014 -5.649,30.925 -40.661,85.506 -40.661,85.506 16.566,-15.986 55.025,-18.64 55.025,-18.64 0,0 -38.459,12.482 -55.025,35.352 0,0 26.618,42.875 0,66.521"
         style="fill:#ffffff;fill-opacity:1;fill-rule:nonzero;stroke:none"
         id="path3107-0"
         sodipodi:nodetypes="cccccccccccc"
         inkscape:export-filename="C:\xampp\htdocs\git\seahorseking\assets\image\shk_logo.png"
         inkscape:export-xdpi="90"
         inkscape:export-ydpi="90" /><path
         inkscape:connector-curvature="0"
         d="m 792.95142,708.49715 81.324,0 c -7.507,9.126 0,38.804 0,38.804 l -20.409,-22.834 -20.254,22.834 -20.252,-22.834 -20.409,22.834 c 0,0 8.701,-30.115 0,-38.804"
         style="fill:#00cca7;fill-opacity:1;fill-rule:nonzero;stroke:none"
         id="path3111-6"
         sodipodi:nodetypes="cccccccc"
         inkscape:export-filename="C:\xampp\htdocs\git\seahorseking\assets\image\shk_logo.png"
         inkscape:export-xdpi="90"
         inkscape:export-ydpi="90" /></g></g></svg>